<mxfile host="app.diagrams.net" modified="2021-10-02T08:47:14.577Z" agent="5.0 (Macintosh; Intel Mac OS X 10_15_7) AppleWebKit/537.36 (KHTML, like Gecko) Chrome/92.0.4515.131 Safari/537.36" etag="YAkFQmkbXCbw-pslD3YR" version="15.4.1" type="github">
  <diagram name="Page-1" id="82e54ff1-d628-8f03-85c4-9753963a91cd">
    <mxGraphModel dx="1236" dy="841" grid="1" gridSize="10" guides="1" tooltips="1" connect="1" arrows="1" fold="1" page="1" pageScale="1" pageWidth="1100" pageHeight="850" background="#ffffff" math="0" shadow="0">
      <root>
        <mxCell id="0" />
        <mxCell id="1" parent="0" />
        <mxCell id="yMuScazEWwQb6u4cH0Qy-16" value="6.通知游戏服发货" style="edgeStyle=orthogonalEdgeStyle;rounded=0;orthogonalLoop=1;jettySize=auto;html=1;entryX=0.25;entryY=0;entryDx=0;entryDy=0;" edge="1" parent="1" source="yMuScazEWwQb6u4cH0Qy-1" target="yMuScazEWwQb6u4cH0Qy-3">
          <mxGeometry relative="1" as="geometry">
            <Array as="points">
              <mxPoint x="200" y="120" />
              <mxPoint x="525" y="120" />
            </Array>
          </mxGeometry>
        </mxCell>
        <mxCell id="yMuScazEWwQb6u4cH0Qy-1" value="充值服务器" style="shape=module;align=left;spacingLeft=20;align=center;verticalAlign=top;" vertex="1" parent="1">
          <mxGeometry x="150" y="190" width="100" height="50" as="geometry" />
        </mxCell>
        <mxCell id="yMuScazEWwQb6u4cH0Qy-2" value="余额服务器" style="shape=module;align=left;spacingLeft=20;align=center;verticalAlign=top;" vertex="1" parent="1">
          <mxGeometry x="150" y="260" width="100" height="50" as="geometry" />
        </mxCell>
        <mxCell id="yMuScazEWwQb6u4cH0Qy-9" style="edgeStyle=orthogonalEdgeStyle;rounded=0;orthogonalLoop=1;jettySize=auto;html=1;entryX=0;entryY=0.3333333333333333;entryDx=0;entryDy=0;entryPerimeter=0;" edge="1" parent="1" source="yMuScazEWwQb6u4cH0Qy-3" target="yMuScazEWwQb6u4cH0Qy-5">
          <mxGeometry relative="1" as="geometry">
            <Array as="points">
              <mxPoint x="550" y="350" />
            </Array>
          </mxGeometry>
        </mxCell>
        <mxCell id="yMuScazEWwQb6u4cH0Qy-10" value="2.返回订单ID" style="edgeLabel;html=1;align=center;verticalAlign=middle;resizable=0;points=[];" vertex="1" connectable="0" parent="yMuScazEWwQb6u4cH0Qy-9">
          <mxGeometry x="0.0615" relative="1" as="geometry">
            <mxPoint as="offset" />
          </mxGeometry>
        </mxCell>
        <mxCell id="yMuScazEWwQb6u4cH0Qy-17" style="edgeStyle=orthogonalEdgeStyle;rounded=0;orthogonalLoop=1;jettySize=auto;html=1;entryX=1;entryY=0.3333333333333333;entryDx=0;entryDy=0;entryPerimeter=0;" edge="1" parent="1" source="yMuScazEWwQb6u4cH0Qy-3" target="yMuScazEWwQb6u4cH0Qy-5">
          <mxGeometry relative="1" as="geometry">
            <Array as="points">
              <mxPoint x="550" y="120" />
              <mxPoint x="880" y="120" />
              <mxPoint x="880" y="350" />
            </Array>
          </mxGeometry>
        </mxCell>
        <mxCell id="yMuScazEWwQb6u4cH0Qy-18" value="7.通知发货完成" style="edgeLabel;html=1;align=center;verticalAlign=middle;resizable=0;points=[];" vertex="1" connectable="0" parent="yMuScazEWwQb6u4cH0Qy-17">
          <mxGeometry x="-0.3068" y="2" relative="1" as="geometry">
            <mxPoint as="offset" />
          </mxGeometry>
        </mxCell>
        <mxCell id="yMuScazEWwQb6u4cH0Qy-21" value="8.增加余额" style="edgeStyle=orthogonalEdgeStyle;rounded=0;orthogonalLoop=1;jettySize=auto;html=1;entryX=1;entryY=0.5;entryDx=0;entryDy=0;" edge="1" parent="1" source="yMuScazEWwQb6u4cH0Qy-3" target="yMuScazEWwQb6u4cH0Qy-2">
          <mxGeometry relative="1" as="geometry" />
        </mxCell>
        <mxCell id="yMuScazEWwQb6u4cH0Qy-3" value="游戏服务器" style="shape=module;align=left;spacingLeft=20;align=center;verticalAlign=top;" vertex="1" parent="1">
          <mxGeometry x="500" y="190" width="100" height="50" as="geometry" />
        </mxCell>
        <mxCell id="yMuScazEWwQb6u4cH0Qy-7" style="edgeStyle=orthogonalEdgeStyle;rounded=0;orthogonalLoop=1;jettySize=auto;html=1;" edge="1" parent="1" source="yMuScazEWwQb6u4cH0Qy-5">
          <mxGeometry relative="1" as="geometry">
            <mxPoint x="600" y="215" as="targetPoint" />
            <Array as="points">
              <mxPoint x="845" y="215" />
            </Array>
          </mxGeometry>
        </mxCell>
        <mxCell id="yMuScazEWwQb6u4cH0Qy-8" value="1.下单" style="edgeLabel;html=1;align=center;verticalAlign=middle;resizable=0;points=[];" vertex="1" connectable="0" parent="yMuScazEWwQb6u4cH0Qy-7">
          <mxGeometry x="0.1111" y="-1" relative="1" as="geometry">
            <mxPoint as="offset" />
          </mxGeometry>
        </mxCell>
        <mxCell id="yMuScazEWwQb6u4cH0Qy-11" style="edgeStyle=orthogonalEdgeStyle;rounded=0;orthogonalLoop=1;jettySize=auto;html=1;entryX=1;entryY=0.25;entryDx=0;entryDy=0;" edge="1" parent="1" source="yMuScazEWwQb6u4cH0Qy-5" target="yMuScazEWwQb6u4cH0Qy-6">
          <mxGeometry relative="1" as="geometry">
            <Array as="points">
              <mxPoint x="715" y="388" />
            </Array>
          </mxGeometry>
        </mxCell>
        <mxCell id="yMuScazEWwQb6u4cH0Qy-12" value="3.支付订单" style="edgeLabel;html=1;align=center;verticalAlign=middle;resizable=0;points=[];" vertex="1" connectable="0" parent="yMuScazEWwQb6u4cH0Qy-11">
          <mxGeometry y="1" relative="1" as="geometry">
            <mxPoint as="offset" />
          </mxGeometry>
        </mxCell>
        <mxCell id="yMuScazEWwQb6u4cH0Qy-5" value="客户端" style="shape=umlActor;verticalLabelPosition=bottom;verticalAlign=top;html=1;" vertex="1" parent="1">
          <mxGeometry x="830" y="330" width="30" height="60" as="geometry" />
        </mxCell>
        <mxCell id="yMuScazEWwQb6u4cH0Qy-13" style="edgeStyle=orthogonalEdgeStyle;rounded=0;orthogonalLoop=1;jettySize=auto;html=1;entryX=1;entryY=1;entryDx=0;entryDy=0;entryPerimeter=0;" edge="1" parent="1" source="yMuScazEWwQb6u4cH0Qy-6" target="yMuScazEWwQb6u4cH0Qy-5">
          <mxGeometry relative="1" as="geometry">
            <Array as="points">
              <mxPoint x="860" y="410" />
            </Array>
          </mxGeometry>
        </mxCell>
        <mxCell id="yMuScazEWwQb6u4cH0Qy-14" value="4.支付完成" style="edgeLabel;html=1;align=center;verticalAlign=middle;resizable=0;points=[];" vertex="1" connectable="0" parent="yMuScazEWwQb6u4cH0Qy-13">
          <mxGeometry x="-0.2286" relative="1" as="geometry">
            <mxPoint as="offset" />
          </mxGeometry>
        </mxCell>
        <mxCell id="yMuScazEWwQb6u4cH0Qy-15" value="5.充值完成回调" style="edgeStyle=orthogonalEdgeStyle;rounded=0;orthogonalLoop=1;jettySize=auto;html=1;entryX=0;entryY=0;entryDx=0;entryDy=15;entryPerimeter=0;" edge="1" parent="1" source="yMuScazEWwQb6u4cH0Qy-6" target="yMuScazEWwQb6u4cH0Qy-1">
          <mxGeometry relative="1" as="geometry">
            <Array as="points">
              <mxPoint x="40" y="400" />
              <mxPoint x="40" y="205" />
            </Array>
          </mxGeometry>
        </mxCell>
        <mxCell id="yMuScazEWwQb6u4cH0Qy-6" value="平台服务器" style="shape=module;align=left;spacingLeft=20;align=center;verticalAlign=top;" vertex="1" parent="1">
          <mxGeometry x="500" y="375" width="100" height="50" as="geometry" />
        </mxCell>
        <mxCell id="yMuScazEWwQb6u4cH0Qy-31" style="edgeStyle=orthogonalEdgeStyle;rounded=0;orthogonalLoop=1;jettySize=auto;html=1;entryX=0.03;entryY=0.5;entryDx=0;entryDy=0;entryPerimeter=0;" edge="1" parent="1" source="yMuScazEWwQb6u4cH0Qy-22" target="yMuScazEWwQb6u4cH0Qy-24">
          <mxGeometry relative="1" as="geometry" />
        </mxCell>
        <mxCell id="yMuScazEWwQb6u4cH0Qy-32" value="4.通知发货" style="edgeLabel;html=1;align=center;verticalAlign=middle;resizable=0;points=[];" vertex="1" connectable="0" parent="yMuScazEWwQb6u4cH0Qy-31">
          <mxGeometry x="-0.1146" relative="1" as="geometry">
            <mxPoint as="offset" />
          </mxGeometry>
        </mxCell>
        <mxCell id="yMuScazEWwQb6u4cH0Qy-22" value="充值服务器" style="shape=module;align=left;spacingLeft=20;align=center;verticalAlign=top;" vertex="1" parent="1">
          <mxGeometry x="150" y="550" width="100" height="50" as="geometry" />
        </mxCell>
        <mxCell id="yMuScazEWwQb6u4cH0Qy-29" style="edgeStyle=orthogonalEdgeStyle;rounded=0;orthogonalLoop=1;jettySize=auto;html=1;entryX=0;entryY=0;entryDx=0;entryDy=15;entryPerimeter=0;" edge="1" parent="1" source="yMuScazEWwQb6u4cH0Qy-23" target="yMuScazEWwQb6u4cH0Qy-22">
          <mxGeometry relative="1" as="geometry">
            <mxPoint x="140" y="570" as="targetPoint" />
            <Array as="points">
              <mxPoint x="50" y="645" />
              <mxPoint x="50" y="565" />
            </Array>
          </mxGeometry>
        </mxCell>
        <mxCell id="yMuScazEWwQb6u4cH0Qy-30" value="3.购买成功回调" style="edgeLabel;html=1;align=center;verticalAlign=middle;resizable=0;points=[];" vertex="1" connectable="0" parent="yMuScazEWwQb6u4cH0Qy-29">
          <mxGeometry x="0.0357" y="1" relative="1" as="geometry">
            <mxPoint as="offset" />
          </mxGeometry>
        </mxCell>
        <mxCell id="yMuScazEWwQb6u4cH0Qy-23" value="余额服务器" style="shape=module;align=left;spacingLeft=20;align=center;verticalAlign=top;" vertex="1" parent="1">
          <mxGeometry x="150" y="620" width="100" height="50" as="geometry" />
        </mxCell>
        <mxCell id="yMuScazEWwQb6u4cH0Qy-33" style="edgeStyle=orthogonalEdgeStyle;rounded=0;orthogonalLoop=1;jettySize=auto;html=1;" edge="1" parent="1" source="yMuScazEWwQb6u4cH0Qy-24" target="yMuScazEWwQb6u4cH0Qy-25">
          <mxGeometry relative="1" as="geometry">
            <Array as="points">
              <mxPoint x="550" y="500" />
              <mxPoint x="845" y="500" />
            </Array>
          </mxGeometry>
        </mxCell>
        <mxCell id="yMuScazEWwQb6u4cH0Qy-34" value="5.发货完成通知" style="edgeLabel;html=1;align=center;verticalAlign=middle;resizable=0;points=[];" vertex="1" connectable="0" parent="yMuScazEWwQb6u4cH0Qy-33">
          <mxGeometry x="-0.1417" y="2" relative="1" as="geometry">
            <mxPoint as="offset" />
          </mxGeometry>
        </mxCell>
        <mxCell id="yMuScazEWwQb6u4cH0Qy-37" style="edgeStyle=orthogonalEdgeStyle;rounded=0;orthogonalLoop=1;jettySize=auto;html=1;entryX=0.99;entryY=0.64;entryDx=0;entryDy=0;entryPerimeter=0;" edge="1" parent="1" source="yMuScazEWwQb6u4cH0Qy-24" target="yMuScazEWwQb6u4cH0Qy-23">
          <mxGeometry relative="1" as="geometry">
            <Array as="points">
              <mxPoint x="550" y="652" />
            </Array>
          </mxGeometry>
        </mxCell>
        <mxCell id="yMuScazEWwQb6u4cH0Qy-38" value="7.查询余额" style="edgeLabel;html=1;align=center;verticalAlign=middle;resizable=0;points=[];" vertex="1" connectable="0" parent="yMuScazEWwQb6u4cH0Qy-37">
          <mxGeometry x="0.3088" y="2" relative="1" as="geometry">
            <mxPoint as="offset" />
          </mxGeometry>
        </mxCell>
        <mxCell id="yMuScazEWwQb6u4cH0Qy-24" value="游戏服务器" style="shape=module;align=left;spacingLeft=20;align=center;verticalAlign=top;" vertex="1" parent="1">
          <mxGeometry x="500" y="550" width="100" height="50" as="geometry" />
        </mxCell>
        <mxCell id="yMuScazEWwQb6u4cH0Qy-26" style="edgeStyle=orthogonalEdgeStyle;rounded=0;orthogonalLoop=1;jettySize=auto;html=1;entryX=1;entryY=0.5;entryDx=0;entryDy=0;" edge="1" parent="1" source="yMuScazEWwQb6u4cH0Qy-25" target="yMuScazEWwQb6u4cH0Qy-24">
          <mxGeometry relative="1" as="geometry" />
        </mxCell>
        <mxCell id="yMuScazEWwQb6u4cH0Qy-27" value="1.下单" style="edgeLabel;html=1;align=center;verticalAlign=middle;resizable=0;points=[];" vertex="1" connectable="0" parent="yMuScazEWwQb6u4cH0Qy-26">
          <mxGeometry x="0.093" y="3" relative="1" as="geometry">
            <mxPoint as="offset" />
          </mxGeometry>
        </mxCell>
        <mxCell id="yMuScazEWwQb6u4cH0Qy-28" value="2.购买支付道具" style="edgeStyle=orthogonalEdgeStyle;rounded=0;orthogonalLoop=1;jettySize=auto;html=1;entryX=0.25;entryY=1;entryDx=0;entryDy=0;" edge="1" parent="1" source="yMuScazEWwQb6u4cH0Qy-25" target="yMuScazEWwQb6u4cH0Qy-23">
          <mxGeometry relative="1" as="geometry">
            <Array as="points">
              <mxPoint x="845" y="790" />
              <mxPoint x="175" y="790" />
            </Array>
          </mxGeometry>
        </mxCell>
        <mxCell id="yMuScazEWwQb6u4cH0Qy-35" style="edgeStyle=orthogonalEdgeStyle;rounded=0;orthogonalLoop=1;jettySize=auto;html=1;entryX=0.75;entryY=1;entryDx=0;entryDy=0;" edge="1" parent="1" source="yMuScazEWwQb6u4cH0Qy-25" target="yMuScazEWwQb6u4cH0Qy-24">
          <mxGeometry relative="1" as="geometry">
            <Array as="points">
              <mxPoint x="575" y="700" />
            </Array>
          </mxGeometry>
        </mxCell>
        <mxCell id="yMuScazEWwQb6u4cH0Qy-36" value="6.刷新余额" style="edgeLabel;html=1;align=center;verticalAlign=middle;resizable=0;points=[];" vertex="1" connectable="0" parent="yMuScazEWwQb6u4cH0Qy-35">
          <mxGeometry x="0.201" y="1" relative="1" as="geometry">
            <mxPoint as="offset" />
          </mxGeometry>
        </mxCell>
        <mxCell id="yMuScazEWwQb6u4cH0Qy-25" value="客户端" style="shape=umlActor;verticalLabelPosition=bottom;verticalAlign=top;html=1;" vertex="1" parent="1">
          <mxGeometry x="830" y="670" width="30" height="60" as="geometry" />
        </mxCell>
      </root>
    </mxGraphModel>
  </diagram>
</mxfile>
